<svg xmlns="http://www.w3.org/2000/svg" viewBox="0 0 150.14 24.56"><defs><style>.cls-1{fill:#fff;fill-rule:evenodd;}</style></defs><g id="Слой_2" data-name="Слой 2"><g id="_1" data-name="1"><path class="cls-1" d="M8.32,1.19H1.46V7.54H8.32V5H4.77V3.85h5V6.69a2.36,2.36,0,0,1-.43,1.63,2.26,2.26,0,0,1-1.63.44H2.06A2.27,2.27,0,0,1,.43,8.32,2.33,2.33,0,0,1,0,6.69V2.07A2.33,2.33,0,0,1,.43.44,2.27,2.27,0,0,1,2.06,0H7.72A2.3,2.3,0,0,1,9.34.43,2.13,2.13,0,0,1,9.78,2v.22l-1.46.29V1.19Zm93.95,0H96.08V3.63h5.51a2.34,2.34,0,0,1,1.61.43,2.34,2.34,0,0,1,.43,1.64v1a2.41,2.41,0,0,1-.42,1.65,2.28,2.28,0,0,1-1.62.43H96.48a2.24,2.24,0,0,1-1.62-.44,2.32,2.32,0,0,1-.43-1.64V6.44l1.36-.31V7.54h6.52V4.91h-5.5a2.26,2.26,0,0,1-1.62-.44,2.38,2.38,0,0,1-.42-1.64V2.07A2.35,2.35,0,0,1,95.19.44,2.21,2.21,0,0,1,96.81,0h4.66a2.28,2.28,0,0,1,1.61.43,2,2,0,0,1,.45,1.49v.19l-1.26.35V1.19ZM18.56,2.61H14.73V4.94h3.83a.88.88,0,0,0,.61-.15.77.77,0,0,0,.16-.58V3.34a.78.78,0,0,0-.16-.56.87.87,0,0,0-.61-.17ZM13.37,8.76V1.56h5.79a1.67,1.67,0,0,1,1.16.33A1.41,1.41,0,0,1,20.67,3V4.57a1.4,1.4,0,0,1-.35,1,1.73,1.73,0,0,1-1.16.32h-.95l3.18,2.82H19.57L16.7,5.94h-2V8.76Zm11.77-7.2V7.67H30.4V1.56h1.37v5.5a1.86,1.86,0,0,1-.37,1.35A2.06,2.06,0,0,1,30,8.76H25.54a2,2,0,0,1-1.4-.36,1.87,1.87,0,0,1-.36-1.34V1.56ZM39.65,2.63H37v5h2.63a4,4,0,0,0,2.5-.59,2.33,2.33,0,0,0,.74-1.95,2.25,2.25,0,0,0-.75-1.91,4.1,4.1,0,0,0-2.49-.59Zm.15-1.07a9.29,9.29,0,0,1,1.73.14,3.37,3.37,0,0,1,1.15.42,3.28,3.28,0,0,1,1.16,1.26,3.86,3.86,0,0,1,.41,1.76,3.32,3.32,0,0,1-1.1,2.72,5.23,5.23,0,0,1-3.35.9H35.66V1.56Zm6.5,7.2,4.16-7.2H51.7L56,8.76H54.49l-.94-1.68h-5l-.92,1.68ZM49.15,6H53L51.06,2.62,49.15,6Zm9,2.72V1.56h1.36V4.65L64,1.56h1.89L60.6,5l5.9,3.72H64.28l-4.8-3.23V8.76ZM69.56,7.67h6v-5h-6v5ZM68.2,3.27a1.86,1.86,0,0,1,.38-1.35A2,2,0,0,1,70,1.56h5.19a2,2,0,0,1,1.39.36,1.86,1.86,0,0,1,.38,1.35V7.06a1.82,1.82,0,0,1-.37,1.34,2,2,0,0,1-1.4.36H70a2.07,2.07,0,0,1-1.4-.35,1.86,1.86,0,0,1-.37-1.35V3.27ZM82.94,8.76l-4.15-7.2h1.46l3.23,5.79,3.09-5.79h1.34L84,8.76Zm24.51,0V1.56h7.25V2.63h-5.9V4.48h3.55V5.55H108.8V7.71h6v1Zm15-6.15h-3.83V4.94h3.83a.92.92,0,0,0,.61-.15.82.82,0,0,0,.16-.58V3.34a.78.78,0,0,0-.17-.56.84.84,0,0,0-.6-.17Zm-5.19,6.15V1.56h5.79a1.69,1.69,0,0,1,1.16.33A1.41,1.41,0,0,1,124.61,3V4.57a1.4,1.4,0,0,1-.35,1,1.75,1.75,0,0,1-1.16.32h-1l3.18,2.82h-1.81l-2.88-2.82h-2V8.76Zm17.28-6.13H128.9v5h5.69V5.72h-2.94v-1H136V7.06a1.87,1.87,0,0,1-.37,1.34,2,2,0,0,1-1.4.36h-4.87a2.09,2.09,0,0,1-1.4-.35,1.86,1.86,0,0,1-.37-1.35V3.27a1.86,1.86,0,0,1,.38-1.35,2,2,0,0,1,1.39-.36h4.87a2,2,0,0,1,1.38.36A1.64,1.64,0,0,1,136,3.17v.21l-1.36.24v-1ZM139,8.76V1.56h7.25V2.63h-5.89V4.48h3.55V5.55h-3.55V7.71h6v1Zm11.19,0h-1.36V1.58h1.36Z"/><path class="cls-1" d="M49.07,24.56A1.64,1.64,0,0,1,48,24.27a1.48,1.48,0,0,1-.29-1.06v-1.1l1.08-.22V23.7h3V18.85h1.07v4.36a1.43,1.43,0,0,1-.29,1.06,1.59,1.59,0,0,1-1.11.29Zm6.43,0V18.85h5.75v.85H56.58v1.46h2.81V22H56.58v1.71H61.3v.84Zm9,0-2.21-5.71h1.12L65,23.21l1.69-4.36h.71L69,23.21l1.58-4.36h1L69.4,24.56h-.79L67,20.3l-1.68,4.26Zm8.71,0V18.85H79v.85H74.3v1.46h2.82V22H74.3v1.71H79v.84Zm7.82,0V18.85h1.07V23.7h4.45v.86Zm11.32-4.88h-3v1.85h3a.69.69,0,0,0,.48-.12A.65.65,0,0,0,93,21v-.69a.58.58,0,0,0-.14-.44.63.63,0,0,0-.47-.14Zm-4.12,4.88V18.85h4.59a1.35,1.35,0,0,1,.92.26A1.08,1.08,0,0,1,94,20v1.28a1.08,1.08,0,0,1-.28.84,1.35,1.35,0,0,1-.92.25h-.76l2.53,2.24H93.16l-2.27-2.24H89.33v2.24Zm10.19,0v-2.5l-3-3.21h1.31l2.28,2.47,2.17-2.47h1.26l-3,3.21v2.5Z"/></g></g></svg>